<svg width="32" height="32" viewBox="0 0 32 32" fill="none" xmlns="http://www.w3.org/2000/svg">
  <rect width="32" height="32" fill="#000000"/>
  <!-- S letter - thick rounded S shape on the left -->
  <path d="M6 8C6 6.89543 6.89543 6 8 6H10C11.1046 6 12 6.89543 12 8C12 9.10457 11.1046 10 10 10H9C7.89543 10 7 10.8954 7 12C7 13.1046 7.89543 14 9 14H10C11.1046 14 12 14.8954 12 16C12 17.1046 11.1046 18 10 18H8C6.89543 18 6 18.8954 6 20C6 21.1046 6.89543 22 8 22H10C11.1046 22 12 21.1046 12 20" stroke="#FFFFFF" stroke-width="2.5" fill="none" stroke-linecap="round" stroke-linejoin="round"/>
  <!-- K letter - vertical stroke overlaps with S, diagonal strokes extend right -->
  <path d="M12 4V28M12 14L18 8M12 14L18 20" stroke="#FFFFFF" stroke-width="2.5" stroke-linecap="round" stroke-linejoin="round"/>
</svg>
